<svg xmlns="http://www.w3.org/2000/svg" version="1.1" xmlns:xlink="http://www.w3.org/1999/xlink" xmlns:svgjs="http://svgjs.dev/svgjs" width="1000" height="1107" viewBox="0 0 1000 1107"><g transform="matrix(1,0,0,1,0.07447432220448036,0.44817813765178016)"><svg viewBox="0 0 223 247" data-background-color="#ffffff" preserveAspectRatio="xMidYMid meet" height="1107" width="1000" xmlns="http://www.w3.org/2000/svg" xmlns:xlink="http://www.w3.org/1999/xlink"><g id="tight-bounds" transform="matrix(1,0,0,1,-0.016607773851603724,-0.09999999999999432)"><svg viewBox="0 0 223.03321554770318 247.2" height="247.2" width="223.03321554770318"><g><svg viewBox="0 0 223.03321554770318 247.2" height="247.2" width="223.03321554770318"><g><svg viewBox="0 0 223.03321554770318 247.2" height="247.2" width="223.03321554770318"><g id="textblocktransform"><svg viewBox="0 0 223.03321554770318 247.2" height="247.2" width="223.03321554770318" id="textblock"><g><svg viewBox="0 0 223.03321554770318 247.2" height="247.2" width="223.03321554770318"><g transform="matrix(1,0,0,1,0,0)"><svg width="223.03321554770318" viewBox="2.25 -36.5 38.3 42.45" height="247.2" data-palette-color="#565696"><path d="M15.15-17.7L15.15-4.5 14.65-4.5 14.65-31.5 15.15-31.5 15.15-18.2 26-18.2 31.75-31.5 32.3-31.5 26.55-18.2 28.6-18.2Q31.65-18.2 33.15-17.05 34.65-15.9 34.65-13.3L34.65-13.3 34.65-4.5 34.15-4.5 34.15-13.3Q34.15-15.7 32.75-16.7 31.35-17.7 28.6-17.7L28.6-17.7 15.15-17.7ZM11 0L18.75 0Q19.7 0 20.13-0.43 20.55-0.85 20.55-1.8L20.55-1.8 20.55-13.25 27.15-13.25Q27.95-13.25 28.35-12.8 28.75-12.35 28.75-11.55L28.75-11.55 28.75-1.8Q28.75-0.85 29.18-0.43 29.6 0 30.55 0L30.55 0 38.25 0Q39.2 0 39.63-0.43 40.05-0.85 40.05-1.8L40.05-1.8 40.05-15.9Q40.05-18.9 38.38-20.73 36.7-22.55 33.9-22.7L33.9-22.7 39-34.35Q39.35-35.15 39.05-35.58 38.75-36 37.9-36L37.9-36 30.2-36Q29.25-36 28.65-35.63 28.05-35.25 27.7-34.35L27.7-34.35 22.55-22.7 20.55-22.7 20.55-34.2Q20.55-35.15 20.13-35.58 19.7-36 18.75-36L18.75-36 11-36Q10.05-36 9.63-35.58 9.2-35.15 9.2-34.2L9.2-34.2 9.2-1.8Q9.2-0.85 9.63-0.43 10.05 0 11 0L11 0ZM20.35 0.05L20.35 0.05 13.85 5.45Q13.65 5.65 13.23 5.8 12.8 5.95 12.3 5.95L12.3 5.95 4.55 5.95Q3.35 5.95 2.8 5.4 2.25 4.85 2.25 3.65L2.25 3.65 2.25-28.75Q2.25-29.4 2.43-29.85 2.6-30.3 2.95-30.6L2.95-30.6 9.4-36.05Q9.65-36.25 10.08-36.38 10.5-36.5 11-36.5L11-36.5 18.75-36.5Q19.95-36.5 20.5-35.95 21.05-35.4 21.05-34.2L21.05-34.2 21.05-29.65Q21.2-29.85 21.35-30.08 21.5-30.3 21.7-30.45L21.7-30.45 28.15-35.9Q28.5-36.2 29.03-36.35 29.55-36.5 30.2-36.5L30.2-36.5 37.9-36.5Q39.15-36.5 39.55-35.88 39.95-35.25 39.45-34.15L39.45-34.15 34.65-23.15Q37.35-22.8 38.95-20.85 40.55-18.9 40.55-15.9L40.55-15.9 40.55-1.8Q40.55-1.15 40.38-0.7 40.2-0.25 39.85 0.05L39.85 0.05 33.35 5.45Q33.15 5.65 32.73 5.8 32.3 5.95 31.8 5.95L31.8 5.95 24.1 5.95Q22.9 5.95 22.35 5.4 21.8 4.85 21.8 3.65L21.8 3.65 21.8-6.1Q21.8-6.6 21.6-6.9 21.4-7.2 21.05-7.25L21.05-7.25 21.05-1.8Q21.05-1.15 20.88-0.7 20.7-0.25 20.35 0.05Z" opacity="1" transform="matrix(1,0,0,1,0,0)" fill="#565696" class="wordmark-text-0" data-fill-palette-color="primary" id="text-0"></path></svg></g></svg></g></svg></g></svg></g></svg></g><defs></defs></svg><rect width="223.03321554770318" height="247.2" fill="none" stroke="none" visibility="hidden"></rect></g></svg></g></svg>